<svg xmlns="http://www.w3.org/2000/svg" xmlns:xlink="http://www.w3.org/1999/xlink" width="377" zoomAndPan="magnify" viewBox="0 0 283.5 283.500005" height="377" preserveAspectRatio="xMidYMid meet" version="1.0"><defs><clipPath id="53646c7c4d"><path d="M 28.296875 28.296875 L 254.398438 28.296875 L 254.398438 254.398438 L 28.296875 254.398438 Z M 28.296875 28.296875 " clip-rule="nonzero"/></clipPath></defs><path fill="#ffffff" d="M 0 0 L 283 0 L 283 283 L 0 283 Z M 0 0 " fill-opacity="1" fill-rule="nonzero"/><path fill="#ffffff" d="M 0 0 L 283 0 L 283 283 L 0 283 Z M 0 0 " fill-opacity="1" fill-rule="nonzero"/><g clip-path="url(#53646c7c4d)"><path fill="#999999" d="M 141.480469 48.875 C 90.335938 48.875 48.875 90.335938 48.875 141.480469 C 48.875 192.628906 90.335938 234.085938 141.480469 234.085938 C 192.628906 234.085938 234.085938 192.628906 234.085938 141.480469 C 234.085938 90.335938 192.628906 48.875 141.480469 48.875 Z M 28.296875 141.480469 C 28.296875 78.972656 78.972656 28.296875 141.480469 28.296875 C 203.992188 28.296875 254.667969 78.972656 254.667969 141.480469 C 254.667969 203.992188 203.992188 254.667969 141.480469 254.667969 C 78.972656 254.667969 28.296875 203.992188 28.296875 141.480469 Z M 28.296875 141.480469 " fill-opacity="1" fill-rule="evenodd"/></g><path fill="#999999" d="M 141.480469 100.324219 C 132.957031 100.324219 126.046875 107.234375 126.046875 115.757812 C 126.046875 121.902344 129.636719 127.226562 134.875 129.714844 C 139.378906 131.851562 141.703125 136.90625 140.390625 141.714844 L 129.230469 182.640625 L 153.734375 182.640625 L 142.574219 141.714844 C 141.261719 136.90625 143.585938 131.851562 148.085938 129.714844 C 153.328125 127.226562 156.917969 121.902344 156.917969 115.757812 C 156.917969 107.234375 150.003906 100.324219 141.480469 100.324219 Z M 105.46875 115.757812 C 105.46875 95.867188 121.59375 79.746094 141.480469 79.746094 C 161.371094 79.746094 177.496094 95.867188 177.496094 115.757812 C 177.496094 126.949219 172.386719 136.9375 164.402344 143.535156 L 177.132812 190.222656 C 177.976562 193.316406 177.328125 196.625 175.382812 199.175781 C 173.4375 201.722656 170.414062 203.21875 167.207031 203.21875 L 115.757812 203.21875 C 112.550781 203.21875 109.527344 201.722656 107.582031 199.175781 C 105.632812 196.625 104.988281 193.316406 105.832031 190.222656 L 118.5625 143.535156 C 110.574219 136.9375 105.46875 126.949219 105.46875 115.757812 Z M 105.46875 115.757812 " fill-opacity="1" fill-rule="evenodd"/></svg>