<svg xmlns="http://www.w3.org/2000/svg" xmlns:xlink="http://www.w3.org/1999/xlink" width="377" zoomAndPan="magnify" viewBox="0 0 283.5 283.500005" height="377" preserveAspectRatio="xMidYMid meet" version="1.0"><defs><clipPath id="03d37c2f2a"><path d="M 28.296875 52 L 251 52 L 251 232.113281 L 28.296875 232.113281 Z M 28.296875 52 " clip-rule="nonzero"/></clipPath></defs><path fill="#ffffff" d="M 0 0 L 283 0 L 283 283 L 0 283 Z M 0 0 " fill-opacity="1" fill-rule="nonzero"/><path fill="#ffffff" d="M 0 0 L 283 0 L 283 283 L 0 283 Z M 0 0 " fill-opacity="1" fill-rule="nonzero"/><g clip-path="url(#03d37c2f2a)"><path fill="#999999" d="M 249.195312 64.53125 C 253.324219 71.683594 254.578125 82.410156 201.875 112.832031 C 200.382812 113.699219 198.851562 114.570312 197.300781 115.453125 L 173.035156 221.980469 L 155.589844 232.058594 L 153.667969 138.714844 C 125.382812 152.96875 112.761719 156.632812 94.300781 162.816406 L 86.476562 208 L 70.984375 216.949219 L 66.492188 170.371094 L 28.402344 143.1875 L 43.886719 134.246094 L 86.3125 149.820312 C 100.792969 136.960938 110.332031 127.804688 136.921875 110.355469 L 57.609375 62.355469 L 75.058594 52.277344 L 178.679688 84.304688 C 180.382812 83.289062 182.0625 82.324219 183.714844 81.367188 C 236.414062 50.941406 245.074219 57.394531 249.195312 64.53125 Z M 249.195312 64.53125 " fill-opacity="1" fill-rule="evenodd"/></g></svg>