<svg xmlns="http://www.w3.org/2000/svg" xmlns:xlink="http://www.w3.org/1999/xlink" width="377" zoomAndPan="magnify" viewBox="0 0 283.5 283.500005" height="377" preserveAspectRatio="xMidYMid meet" version="1.0"><defs><clipPath id="f99aef3e1f"><path d="M 45 40 L 248.828125 40 L 248.828125 244 L 45 244 Z M 45 40 " clip-rule="nonzero"/></clipPath></defs><path fill="#ffffff" d="M 0 0 L 283 0 L 283 283 L 0 283 Z M 0 0 " fill-opacity="1" fill-rule="nonzero"/><path fill="#ffffff" d="M 0 0 L 283 0 L 283 283 L 0 283 Z M 0 0 " fill-opacity="1" fill-rule="nonzero"/><g clip-path="url(#f99aef3e1f)"><path fill="#999999" d="M 249.003906 141.480469 C 249.011719 143.410156 248.96875 145.339844 248.871094 147.265625 C 248.773438 149.191406 248.617188 151.113281 248.410156 153.03125 C 248.203125 154.949219 247.941406 156.859375 247.625 158.761719 C 247.308594 160.664062 246.9375 162.558594 246.515625 164.4375 C 246.089844 166.320312 245.613281 168.1875 245.085938 170.042969 C 244.554688 171.898438 243.972656 173.738281 243.339844 175.558594 C 242.703125 177.378906 242.019531 179.183594 241.28125 180.964844 C 240.546875 182.746094 239.761719 184.507812 238.921875 186.246094 C 238.085938 187.984375 237.203125 189.699219 236.269531 191.386719 C 235.335938 193.074219 234.351562 194.734375 233.324219 196.367188 C 232.296875 197.996094 231.222656 199.597656 230.105469 201.171875 C 228.984375 202.742188 227.824219 204.28125 226.617188 205.785156 C 225.410156 207.289062 224.160156 208.761719 222.871094 210.195312 C 221.582031 211.628906 220.253906 213.023438 218.882812 214.382812 C 217.515625 215.742188 216.109375 217.0625 214.664062 218.339844 C 213.21875 219.621094 211.742188 220.855469 210.226562 222.050781 C 208.710938 223.246094 207.164062 224.398438 205.585938 225.503906 C 204.003906 226.609375 202.394531 227.671875 200.757812 228.6875 C 199.117188 229.703125 197.449219 230.671875 195.753906 231.59375 C 194.058594 232.515625 192.339844 233.386719 190.59375 234.210938 C 188.851562 235.03125 187.085938 235.804688 185.296875 236.527344 C 183.507812 237.25 181.699219 237.921875 179.875 238.542969 C 178.046875 239.164062 176.203125 239.730469 174.347656 240.246094 C 172.488281 240.761719 170.613281 241.226562 168.730469 241.636719 C 166.84375 242.046875 164.949219 242.402344 163.042969 242.703125 C 161.140625 243.003906 159.226562 243.25 157.308594 243.445312 C 155.390625 243.636719 153.464844 243.777344 151.539062 243.859375 C 149.613281 243.945312 147.683594 243.972656 145.753906 243.949219 C 143.824219 243.921875 141.898438 243.84375 139.976562 243.707031 C 138.050781 243.574219 136.132812 243.382812 134.21875 243.140625 C 132.304688 242.894531 130.398438 242.597656 128.503906 242.246094 C 126.605469 241.894531 124.722656 241.488281 122.847656 241.027344 C 120.976562 240.570312 119.117188 240.058594 117.273438 239.492188 C 115.425781 238.929688 113.601562 238.3125 111.789062 237.644531 C 109.980469 236.976562 108.191406 236.253906 106.425781 235.484375 C 104.65625 234.714844 102.910156 233.894531 101.1875 233.027344 C 99.464844 232.15625 97.769531 231.242188 96.101562 230.273438 C 94.429688 229.308594 92.789062 228.296875 91.175781 227.238281 C 89.5625 226.179688 87.984375 225.078125 86.433594 223.929688 C 84.882812 222.78125 83.367188 221.589844 81.886719 220.355469 C 80.402344 219.121094 78.957031 217.84375 77.546875 216.527344 C 76.136719 215.210938 74.765625 213.855469 73.433594 212.460938 C 72.101562 211.066406 70.808594 209.632812 69.558594 208.167969 C 68.304688 206.699219 67.097656 205.195312 65.929688 203.660156 C 64.765625 202.125 63.644531 200.554688 62.566406 198.953125 C 61.488281 197.355469 60.457031 195.726562 59.472656 194.066406 C 58.488281 192.40625 57.550781 190.722656 56.664062 189.011719 C 55.773438 187.296875 54.933594 185.5625 54.144531 183.804688 C 53.355469 182.042969 52.613281 180.261719 51.925781 178.460938 C 51.238281 176.660156 50.597656 174.839844 50.011719 173 C 49.425781 171.164062 48.894531 169.3125 48.414062 167.441406 C 47.933594 165.574219 47.507812 163.695312 47.132812 161.800781 C 46.757812 159.910156 46.4375 158.007812 46.171875 156.097656 C 45.90625 154.1875 45.695312 152.269531 45.539062 150.347656 C 45.382812 148.425781 45.28125 146.5 45.230469 144.570312 C 45.183594 142.644531 45.191406 140.714844 45.253906 138.789062 C 45.316406 136.859375 45.429688 134.933594 45.601562 133.011719 C 45.773438 131.09375 46 129.175781 46.28125 127.269531 C 46.558594 125.359375 46.894531 123.460938 47.28125 121.570312 C 47.667969 119.683594 48.109375 117.804688 48.605469 115.941406 C 49.097656 114.074219 49.644531 112.226562 50.246094 110.394531 C 50.84375 108.558594 51.496094 106.746094 52.195312 104.949219 C 52.898438 103.152344 53.652344 101.375 54.457031 99.621094 C 55.257812 97.867188 56.109375 96.140625 57.011719 94.433594 C 57.914062 92.730469 58.863281 91.050781 59.859375 89.398438 C 60.855469 87.746094 61.898438 86.125 62.988281 84.535156 C 64.078125 82.941406 65.210938 81.382812 66.386719 79.851562 C 67.566406 78.324219 68.785156 76.832031 70.046875 75.375 C 71.308594 73.914062 72.613281 72.492188 73.957031 71.109375 C 75.296875 69.722656 76.679688 68.378906 78.097656 67.074219 C 79.519531 65.765625 80.972656 64.5 82.464844 63.277344 C 83.957031 62.054688 85.480469 60.875 87.039062 59.738281 C 88.597656 58.601562 90.1875 57.507812 91.808594 56.460938 C 93.425781 55.414062 95.074219 54.414062 96.753906 53.460938 C 98.429688 52.507812 100.132812 51.605469 101.859375 50.746094 C 103.589844 49.890625 105.339844 49.085938 107.113281 48.328125 C 108.890625 47.570312 110.683594 46.863281 112.496094 46.210938 C 114.3125 45.554688 116.144531 44.953125 117.992188 44.398438 C 119.839844 43.847656 121.703125 43.351562 123.582031 42.90625 C 125.457031 42.460938 127.34375 42.070312 129.246094 41.730469 C 131.144531 41.394531 133.050781 41.109375 134.964844 40.878906 C 136.882812 40.648438 138.800781 40.472656 140.726562 40.355469 C 142.652344 40.234375 144.578125 40.167969 146.507812 40.15625 C 148.4375 40.144531 150.363281 40.1875 152.289062 40.285156 C 154.21875 40.382812 156.140625 40.535156 158.058594 40.746094 C 159.972656 40.953125 161.886719 41.214844 163.789062 41.527344 C 165.691406 41.84375 167.582031 42.214844 169.464844 42.636719 C 171.347656 43.0625 173.214844 43.539062 175.070312 44.066406 C 176.925781 44.597656 178.761719 45.179688 180.585938 45.8125 C 182.40625 46.445312 184.210938 47.128906 185.992188 47.867188 C 187.777344 48.601562 189.535156 49.390625 191.273438 50.226562 C 193.011719 51.0625 194.726562 51.945312 196.414062 52.878906 C 198.101562 53.8125 199.761719 54.792969 201.394531 55.820312 C 203.027344 56.847656 204.628906 57.921875 206.199219 59.042969 C 207.773438 60.160156 209.308594 61.320312 210.816406 62.527344 C 212.320312 63.734375 213.789062 64.980469 215.226562 66.273438 L 215.226562 40.152344 L 237.742188 40.152344 L 237.742188 96.445312 C 237.742188 97.183594 237.671875 97.917969 237.527344 98.640625 C 237.382812 99.367188 237.167969 100.070312 236.886719 100.753906 C 236.601562 101.4375 236.257812 102.085938 235.847656 102.699219 C 235.433594 103.316406 234.96875 103.882812 234.445312 104.40625 C 233.921875 104.929688 233.355469 105.398438 232.738281 105.808594 C 232.125 106.21875 231.476562 106.566406 230.792969 106.847656 C 230.109375 107.128906 229.40625 107.34375 228.679688 107.488281 C 227.957031 107.632812 227.222656 107.703125 226.484375 107.703125 L 170.191406 107.703125 L 170.191406 85.1875 L 202.734375 85.1875 C 201.660156 84.140625 200.558594 83.121094 199.425781 82.136719 C 198.292969 81.152344 197.132812 80.199219 195.949219 79.28125 C 194.761719 78.363281 193.550781 77.480469 192.3125 76.628906 C 191.074219 75.78125 189.816406 74.96875 188.53125 74.191406 C 187.25 73.414062 185.945312 72.671875 184.617188 71.96875 C 183.292969 71.265625 181.949219 70.601562 180.582031 69.976562 C 179.21875 69.351562 177.839844 68.765625 176.441406 68.21875 C 175.042969 67.671875 173.632812 67.164062 172.207031 66.699219 C 170.78125 66.230469 169.34375 65.804688 167.890625 65.421875 C 166.441406 65.039062 164.980469 64.695312 163.511719 64.394531 C 162.039062 64.09375 160.5625 63.835938 159.078125 63.621094 C 157.59375 63.402344 156.101562 63.230469 154.609375 63.097656 C 153.113281 62.96875 151.617188 62.878906 150.117188 62.835938 C 148.617188 62.789062 147.117188 62.785156 145.617188 62.828125 C 144.117188 62.867188 142.617188 62.949219 141.125 63.078125 C 139.628906 63.203125 138.136719 63.371094 136.652344 63.582031 C 135.167969 63.792969 133.6875 64.046875 132.21875 64.34375 C 130.746094 64.640625 129.285156 64.976562 127.832031 65.355469 C 126.382812 65.734375 124.941406 66.15625 123.511719 66.617188 C 122.085938 67.078125 120.671875 67.582031 119.273438 68.125 C 117.875 68.664062 116.492188 69.246094 115.125 69.867188 C 113.761719 70.488281 112.414062 71.148438 111.085938 71.847656 C 109.757812 72.546875 108.449219 73.28125 107.164062 74.054688 C 105.878906 74.828125 104.613281 75.636719 103.375 76.484375 C 102.136719 77.328125 100.921875 78.207031 99.730469 79.125 C 98.542969 80.039062 97.378906 80.984375 96.242188 81.96875 C 95.109375 82.949219 94.003906 83.960938 92.925781 85.007812 C 91.847656 86.050781 90.800781 87.125 89.785156 88.230469 C 88.769531 89.332031 87.785156 90.464844 86.835938 91.625 C 85.882812 92.785156 84.964844 93.972656 84.082031 95.1875 C 83.199219 96.398438 82.351562 97.636719 81.539062 98.898438 C 80.726562 100.160156 79.949219 101.441406 79.210938 102.75 C 78.472656 104.054688 77.769531 105.378906 77.105469 106.726562 C 76.441406 108.070312 75.816406 109.4375 75.230469 110.816406 C 74.648438 112.199219 74.101562 113.597656 73.59375 115.007812 C 73.089844 116.421875 72.625 117.847656 72.199219 119.289062 C 71.777344 120.726562 71.394531 122.175781 71.050781 123.636719 C 70.710938 125.097656 70.414062 126.570312 70.15625 128.046875 C 69.898438 129.527344 69.683594 131.011719 69.511719 132.5 C 69.339844 133.992188 69.207031 135.484375 69.121094 136.984375 C 69.035156 138.480469 68.992188 139.980469 68.988281 141.480469 C 68.988281 142.980469 69.03125 144.480469 69.113281 145.980469 C 69.199219 147.476562 69.324219 148.972656 69.496094 150.464844 C 69.664062 151.953125 69.878906 153.4375 70.132812 154.917969 C 70.386719 156.398438 70.683594 157.867188 71.023438 159.328125 C 71.363281 160.789062 71.742188 162.242188 72.164062 163.679688 C 72.585938 165.121094 73.046875 166.546875 73.550781 167.960938 C 74.054688 169.375 74.597656 170.773438 75.183594 172.15625 C 75.765625 173.539062 76.386719 174.902344 77.046875 176.25 C 77.710938 177.597656 78.410156 178.925781 79.144531 180.230469 C 79.882812 181.539062 80.65625 182.824219 81.46875 184.085938 C 82.277344 185.347656 83.125 186.585938 84.007812 187.800781 C 84.886719 189.015625 85.800781 190.203125 86.753906 191.367188 C 87.703125 192.527344 88.683594 193.664062 89.695312 194.769531 C 90.710938 195.875 91.757812 196.949219 92.832031 197.996094 C 93.90625 199.042969 95.011719 200.058594 96.144531 201.039062 C 97.28125 202.023438 98.441406 202.972656 99.628906 203.890625 C 100.816406 204.808594 102.03125 205.6875 103.269531 206.535156 C 104.507812 207.382812 105.769531 208.195312 107.050781 208.96875 C 108.335938 209.746094 109.644531 210.484375 110.96875 211.183594 C 112.296875 211.882812 113.644531 212.546875 115.007812 213.171875 C 116.371094 213.792969 117.753906 214.378906 119.152344 214.921875 C 120.550781 215.46875 121.964844 215.972656 123.390625 216.4375 C 124.816406 216.898438 126.257812 217.324219 127.707031 217.703125 C 129.160156 218.085938 130.621094 218.425781 132.089844 218.722656 C 133.5625 219.023438 135.039062 219.277344 136.523438 219.492188 C 138.007812 219.707031 139.5 219.875 140.996094 220.003906 C 142.488281 220.132812 143.988281 220.21875 145.488281 220.261719 C 146.988281 220.304688 148.488281 220.304688 149.988281 220.261719 C 151.488281 220.21875 152.984375 220.132812 154.480469 220.003906 C 155.972656 219.875 157.464844 219.707031 158.949219 219.492188 C 160.433594 219.277344 161.914062 219.023438 163.382812 218.722656 C 164.855469 218.425781 166.316406 218.085938 167.765625 217.703125 C 169.21875 217.324219 170.65625 216.898438 172.082031 216.4375 C 173.511719 215.972656 174.921875 215.46875 176.320312 214.921875 C 177.71875 214.378906 179.101562 213.792969 180.464844 213.171875 C 181.832031 212.546875 183.175781 211.882812 184.503906 211.183594 C 185.832031 210.484375 187.136719 209.746094 188.421875 208.96875 C 189.707031 208.195312 190.96875 207.382812 192.207031 206.535156 C 193.445312 205.6875 194.65625 204.808594 195.84375 203.890625 C 197.035156 202.972656 198.195312 202.023438 199.328125 201.039062 C 200.460938 200.058594 201.566406 199.042969 202.640625 197.996094 C 203.71875 196.949219 204.761719 195.875 205.777344 194.769531 C 206.789062 193.664062 207.773438 192.527344 208.722656 191.367188 C 209.671875 190.203125 210.585938 189.015625 211.46875 187.800781 C 212.347656 186.585938 213.195312 185.347656 214.003906 184.085938 C 214.816406 182.824219 215.589844 181.539062 216.328125 180.230469 C 217.066406 178.925781 217.765625 177.597656 218.425781 176.25 C 219.085938 174.902344 219.707031 173.539062 220.292969 172.15625 C 220.875 170.773438 221.417969 169.375 221.921875 167.960938 C 222.425781 166.546875 222.886719 165.121094 223.308594 163.679688 C 223.730469 162.242188 224.113281 160.789062 224.449219 159.328125 C 224.789062 157.867188 225.085938 156.398438 225.339844 154.917969 C 225.59375 153.4375 225.808594 151.953125 225.976562 150.464844 C 226.148438 148.972656 226.273438 147.476562 226.359375 145.980469 C 226.445312 144.480469 226.484375 142.980469 226.484375 141.480469 Z M 249.003906 141.480469 " fill-opacity="1" fill-rule="nonzero"/></g></svg>