<svg xmlns="http://www.w3.org/2000/svg" xmlns:xlink="http://www.w3.org/1999/xlink" width="377" zoomAndPan="magnify" viewBox="0 0 283.5 283.500005" height="377" preserveAspectRatio="xMidYMid meet" version="1.0"><defs><clipPath id="a588d9ccae"><path d="M 28.296875 28.296875 L 254.398438 28.296875 L 254.398438 254.398438 L 28.296875 254.398438 Z M 28.296875 28.296875 " clip-rule="nonzero"/></clipPath></defs><path fill="#ffffff" d="M 0 0 L 283 0 L 283 283 L 0 283 Z M 0 0 " fill-opacity="1" fill-rule="nonzero"/><path fill="#ffffff" d="M 0 0 L 283 0 L 283 283 L 0 283 Z M 0 0 " fill-opacity="1" fill-rule="nonzero"/><g clip-path="url(#a588d9ccae)"><path fill="#999999" d="M 141.480469 28.296875 C 139.628906 28.296875 137.777344 28.34375 135.929688 28.433594 C 134.078125 28.523438 132.230469 28.660156 130.386719 28.839844 C 128.542969 29.023438 126.707031 29.25 124.875 29.523438 C 123.042969 29.792969 121.21875 30.109375 119.398438 30.472656 C 117.582031 30.832031 115.777344 31.238281 113.980469 31.6875 C 112.183594 32.136719 110.398438 32.632812 108.625 33.171875 C 106.851562 33.707031 105.09375 34.289062 103.351562 34.914062 C 101.605469 35.535156 99.878906 36.203125 98.167969 36.914062 C 96.457031 37.621094 94.761719 38.371094 93.089844 39.164062 C 91.414062 39.957031 89.761719 40.789062 88.125 41.660156 C 86.492188 42.535156 84.882812 43.445312 83.292969 44.398438 C 81.703125 45.351562 80.140625 46.34375 78.597656 47.371094 C 77.058594 48.402344 75.546875 49.46875 74.058594 50.570312 C 72.570312 51.675781 71.109375 52.8125 69.679688 53.988281 C 68.246094 55.164062 66.84375 56.371094 65.472656 57.617188 C 64.097656 58.859375 62.757812 60.136719 61.449219 61.449219 C 60.136719 62.757812 58.859375 64.097656 57.617188 65.472656 C 56.375 66.84375 55.164062 68.246094 53.988281 69.679688 C 52.8125 71.109375 51.675781 72.570312 50.570312 74.058594 C 49.46875 75.546875 48.402344 77.058594 47.371094 78.597656 C 46.34375 80.140625 45.351562 81.703125 44.398438 83.292969 C 43.445312 84.882812 42.535156 86.492188 41.660156 88.125 C 40.789062 89.761719 39.957031 91.414062 39.164062 93.089844 C 38.371094 94.761719 37.621094 96.457031 36.914062 98.167969 C 36.203125 99.878906 35.535156 101.605469 34.914062 103.351562 C 34.289062 105.09375 33.707031 106.851562 33.171875 108.625 C 32.632812 110.398438 32.136719 112.183594 31.6875 113.980469 C 31.238281 115.777344 30.832031 117.582031 30.472656 119.398438 C 30.109375 121.21875 29.792969 123.042969 29.523438 124.875 C 29.25 126.707031 29.023438 128.542969 28.839844 130.386719 C 28.660156 132.230469 28.523438 134.078125 28.433594 135.929688 C 28.34375 137.777344 28.296875 139.628906 28.296875 141.480469 C 28.296875 143.335938 28.34375 145.183594 28.433594 147.035156 C 28.523438 148.886719 28.660156 150.730469 28.839844 152.574219 C 29.023438 154.417969 29.25 156.257812 29.523438 158.089844 C 29.792969 159.921875 30.109375 161.746094 30.472656 163.5625 C 30.832031 165.378906 31.238281 167.1875 31.6875 168.984375 C 32.136719 170.78125 32.632812 172.566406 33.171875 174.335938 C 33.707031 176.109375 34.289062 177.867188 34.914062 179.613281 C 35.535156 181.355469 36.203125 183.085938 36.914062 184.796875 C 37.621094 186.507812 38.371094 188.199219 39.164062 189.875 C 39.957031 191.550781 40.789062 193.203125 41.660156 194.835938 C 42.535156 196.46875 43.445312 198.082031 44.398438 199.671875 C 45.351562 201.257812 46.34375 202.824219 47.371094 204.363281 C 48.402344 205.902344 49.46875 207.417969 50.570312 208.90625 C 51.675781 210.394531 52.8125 211.855469 53.988281 213.285156 C 55.164062 214.71875 56.375 216.121094 57.617188 217.492188 C 58.859375 218.863281 60.136719 220.207031 61.449219 221.515625 C 62.757812 222.824219 64.097656 224.101562 65.472656 225.347656 C 66.84375 226.589844 68.246094 227.800781 69.679688 228.976562 C 71.109375 230.148438 72.570312 231.289062 74.058594 232.394531 C 75.546875 233.496094 77.058594 234.5625 78.597656 235.589844 C 80.140625 236.621094 81.703125 237.613281 83.292969 238.5625 C 84.882812 239.515625 86.492188 240.429688 88.125 241.300781 C 89.761719 242.175781 91.414062 243.007812 93.089844 243.800781 C 94.761719 244.589844 96.457031 245.34375 98.167969 246.050781 C 99.878906 246.761719 101.605469 247.425781 103.351562 248.050781 C 105.09375 248.675781 106.851562 249.253906 108.625 249.792969 C 110.398438 250.332031 112.183594 250.824219 113.980469 251.273438 C 115.777344 251.726562 117.582031 252.128906 119.398438 252.492188 C 121.21875 252.851562 123.042969 253.171875 124.875 253.441406 C 126.707031 253.714844 128.542969 253.941406 130.386719 254.121094 C 132.230469 254.304688 134.078125 254.441406 135.929688 254.53125 C 137.777344 254.621094 139.628906 254.667969 141.480469 254.667969 C 143.335938 254.667969 145.183594 254.621094 147.035156 254.53125 C 148.886719 254.441406 150.730469 254.304688 152.574219 254.121094 C 154.417969 253.941406 156.257812 253.714844 158.089844 253.441406 C 159.921875 253.171875 161.746094 252.851562 163.5625 252.492188 C 165.378906 252.128906 167.1875 251.726562 168.984375 251.273438 C 170.78125 250.824219 172.566406 250.332031 174.335938 249.792969 C 176.109375 249.253906 177.867188 248.675781 179.613281 248.050781 C 181.355469 247.425781 183.085938 246.761719 184.796875 246.050781 C 186.507812 245.34375 188.199219 244.589844 189.875 243.800781 C 191.550781 243.007812 193.203125 242.175781 194.835938 241.300781 C 196.46875 240.429688 198.082031 239.515625 199.671875 238.5625 C 201.257812 237.613281 202.824219 236.621094 204.363281 235.589844 C 205.902344 234.5625 207.417969 233.496094 208.90625 232.394531 C 210.394531 231.289062 211.855469 230.148438 213.285156 228.976562 C 214.71875 227.800781 216.121094 226.589844 217.492188 225.347656 C 218.863281 224.101562 220.207031 222.824219 221.515625 221.515625 C 222.824219 220.207031 224.101562 218.863281 225.347656 217.492188 C 226.589844 216.121094 227.800781 214.71875 228.976562 213.285156 C 230.148438 211.855469 231.289062 210.394531 232.394531 208.90625 C 233.496094 207.417969 234.5625 205.902344 235.589844 204.363281 C 236.621094 202.824219 237.613281 201.257812 238.5625 199.671875 C 239.515625 198.082031 240.429688 196.46875 241.300781 194.835938 C 242.175781 193.203125 243.007812 191.550781 243.800781 189.875 C 244.589844 188.199219 245.34375 186.507812 246.050781 184.796875 C 246.761719 183.085938 247.425781 181.355469 248.050781 179.613281 C 248.675781 177.867188 249.253906 176.109375 249.792969 174.335938 C 250.332031 172.566406 250.824219 170.78125 251.273438 168.984375 C 251.726562 167.1875 252.128906 165.378906 252.492188 163.5625 C 252.851562 161.746094 253.171875 159.921875 253.441406 158.089844 C 253.714844 156.257812 253.941406 154.417969 254.121094 152.574219 C 254.304688 150.730469 254.441406 148.886719 254.53125 147.035156 C 254.621094 145.183594 254.667969 143.335938 254.667969 141.480469 C 254.664062 139.628906 254.617188 137.78125 254.523438 135.929688 C 254.429688 134.082031 254.292969 132.234375 254.109375 130.390625 C 253.925781 128.550781 253.699219 126.710938 253.425781 124.878906 C 253.152344 123.050781 252.832031 121.226562 252.46875 119.410156 C 252.109375 117.59375 251.699219 115.789062 251.25 113.992188 C 250.796875 112.195312 250.300781 110.410156 249.765625 108.640625 C 249.226562 106.867188 248.644531 105.109375 248.019531 103.367188 C 247.394531 101.625 246.726562 99.898438 246.015625 98.1875 C 245.304688 96.476562 244.554688 94.785156 243.761719 93.113281 C 242.96875 91.4375 242.136719 89.785156 241.261719 88.152344 C 240.390625 86.519531 239.476562 84.910156 238.523438 83.320312 C 237.570312 81.734375 236.582031 80.167969 235.550781 78.628906 C 234.523438 77.089844 233.457031 75.578125 232.351562 74.089844 C 231.25 72.601562 230.109375 71.144531 228.933594 69.710938 C 227.761719 68.28125 226.550781 66.878906 225.308594 65.507812 C 224.0625 64.136719 222.785156 62.796875 221.476562 61.484375 C 220.167969 60.175781 218.828125 58.898438 217.457031 57.65625 C 216.082031 56.414062 214.683594 55.203125 213.25 54.027344 C 211.820312 52.851562 210.359375 51.714844 208.871094 50.609375 C 207.386719 49.507812 205.871094 48.441406 204.332031 47.410156 C 202.792969 46.382812 201.230469 45.390625 199.640625 44.4375 C 198.054688 43.488281 196.445312 42.574219 194.8125 41.699219 C 193.179688 40.824219 191.523438 39.992188 189.851562 39.199219 C 188.179688 38.40625 186.484375 37.65625 184.777344 36.945312 C 183.066406 36.238281 181.339844 35.570312 179.59375 34.945312 C 177.851562 34.320312 176.09375 33.738281 174.324219 33.199219 C 172.550781 32.660156 170.769531 32.164062 168.972656 31.714844 C 167.175781 31.261719 165.371094 30.855469 163.554688 30.492188 C 161.738281 30.128906 159.914062 29.8125 158.082031 29.539062 C 156.25 29.265625 154.414062 29.035156 152.570312 28.851562 C 150.730469 28.671875 148.882812 28.53125 147.035156 28.4375 C 145.183594 28.347656 143.332031 28.296875 141.480469 28.296875 Z M 141.480469 237.253906 C 139.914062 237.253906 138.347656 237.214844 136.78125 237.136719 C 135.21875 237.0625 133.652344 236.945312 132.09375 236.792969 C 130.535156 236.640625 128.980469 236.445312 127.429688 236.21875 C 125.878906 235.988281 124.335938 235.71875 122.796875 235.414062 C 121.261719 235.109375 119.730469 234.765625 118.210938 234.382812 C 116.691406 234.003906 115.179688 233.585938 113.679688 233.128906 C 112.179688 232.675781 110.691406 232.183594 109.21875 231.65625 C 107.742188 231.128906 106.28125 230.5625 104.832031 229.964844 C 103.382812 229.363281 101.949219 228.730469 100.535156 228.058594 C 99.117188 227.386719 97.71875 226.683594 96.335938 225.945312 C 94.953125 225.207031 93.589844 224.433594 92.246094 223.628906 C 90.902344 222.824219 89.578125 221.984375 88.273438 221.113281 C 86.96875 220.242188 85.6875 219.339844 84.429688 218.40625 C 83.171875 217.472656 81.9375 216.507812 80.722656 215.515625 C 79.511719 214.519531 78.328125 213.496094 77.164062 212.445312 C 76.003906 211.390625 74.867188 210.3125 73.761719 209.203125 C 72.652344 208.09375 71.570312 206.960938 70.519531 205.796875 C 69.464844 204.636719 68.441406 203.449219 67.449219 202.238281 C 66.453125 201.027344 65.492188 199.792969 64.558594 198.53125 C 63.625 197.273438 62.722656 195.992188 61.851562 194.691406 C 60.980469 193.386719 60.140625 192.0625 59.335938 190.71875 C 58.53125 189.375 57.757812 188.011719 57.019531 186.628906 C 56.28125 185.246094 55.574219 183.847656 54.90625 182.429688 C 54.234375 181.011719 53.601562 179.582031 53 178.132812 C 52.398438 176.683594 51.835938 175.222656 51.308594 173.746094 C 50.78125 172.269531 50.289062 170.78125 49.832031 169.28125 C 49.378906 167.78125 48.960938 166.273438 48.578125 164.753906 C 48.199219 163.230469 47.855469 161.703125 47.550781 160.164062 C 47.242188 158.628906 46.976562 157.085938 46.746094 155.535156 C 46.515625 153.984375 46.324219 152.429688 46.171875 150.867188 C 46.015625 149.308594 45.902344 147.746094 45.824219 146.179688 C 45.75 144.617188 45.710938 143.050781 45.710938 141.480469 C 45.710938 139.914062 45.75 138.347656 45.824219 136.78125 C 45.902344 135.21875 46.015625 133.652344 46.171875 132.09375 C 46.324219 130.535156 46.515625 128.980469 46.746094 127.429688 C 46.976562 125.878906 47.242188 124.335938 47.550781 122.796875 C 47.855469 121.261719 48.199219 119.730469 48.578125 118.210938 C 48.960938 116.691406 49.378906 115.179688 49.832031 113.679688 C 50.289062 112.179688 50.78125 110.691406 51.308594 109.21875 C 51.835938 107.742188 52.398438 106.28125 53 104.832031 C 53.601562 103.382812 54.234375 101.949219 54.90625 100.535156 C 55.574219 99.117188 56.28125 97.71875 57.019531 96.335938 C 57.757812 94.953125 58.53125 93.589844 59.335938 92.246094 C 60.140625 90.902344 60.980469 89.578125 61.851562 88.273438 C 62.722656 86.96875 63.625 85.6875 64.558594 84.429688 C 65.492188 83.171875 66.453125 81.9375 67.449219 80.722656 C 68.441406 79.511719 69.464844 78.328125 70.519531 77.164062 C 71.570312 76.003906 72.652344 74.867188 73.761719 73.761719 C 74.867188 72.652344 76.003906 71.570312 77.164062 70.519531 C 78.328125 69.464844 79.511719 68.441406 80.722656 67.449219 C 81.9375 66.453125 83.171875 65.492188 84.429688 64.558594 C 85.6875 63.625 86.96875 62.722656 88.273438 61.851562 C 89.578125 60.980469 90.902344 60.140625 92.246094 59.335938 C 93.589844 58.53125 94.953125 57.757812 96.335938 57.019531 C 97.71875 56.28125 99.117188 55.574219 100.535156 54.90625 C 101.949219 54.234375 103.382812 53.601562 104.832031 53 C 106.28125 52.398438 107.742188 51.835938 109.21875 51.308594 C 110.691406 50.78125 112.179688 50.289062 113.679688 49.832031 C 115.179688 49.378906 116.691406 48.960938 118.210938 48.578125 C 119.730469 48.199219 121.261719 47.855469 122.796875 47.550781 C 124.335938 47.242188 125.878906 46.976562 127.429688 46.746094 C 128.980469 46.515625 130.535156 46.324219 132.09375 46.171875 C 133.652344 46.015625 135.21875 45.902344 136.78125 45.824219 C 138.347656 45.75 139.914062 45.710938 141.480469 45.710938 C 143.050781 45.710938 144.617188 45.75 146.179688 45.824219 C 147.746094 45.902344 149.308594 46.015625 150.867188 46.171875 C 152.429688 46.324219 153.984375 46.515625 155.535156 46.746094 C 157.085938 46.976562 158.628906 47.242188 160.164062 47.550781 C 161.703125 47.855469 163.230469 48.199219 164.753906 48.578125 C 166.273438 48.960938 167.78125 49.378906 169.28125 49.832031 C 170.78125 50.289062 172.269531 50.78125 173.746094 51.308594 C 175.222656 51.835938 176.683594 52.398438 178.132812 53 C 179.582031 53.601562 181.011719 54.234375 182.429688 54.90625 C 183.847656 55.574219 185.246094 56.28125 186.628906 57.019531 C 188.011719 57.757812 189.375 58.53125 190.71875 59.335938 C 192.0625 60.140625 193.386719 60.980469 194.691406 61.851562 C 195.992188 62.722656 197.273438 63.625 198.53125 64.558594 C 199.792969 65.492188 201.027344 66.453125 202.238281 67.449219 C 203.449219 68.441406 204.636719 69.464844 205.796875 70.519531 C 206.960938 71.570312 208.09375 72.652344 209.203125 73.761719 C 210.3125 74.867188 211.390625 76.003906 212.445312 77.164062 C 213.496094 78.328125 214.519531 79.511719 215.515625 80.722656 C 216.507812 81.9375 217.472656 83.171875 218.40625 84.429688 C 219.339844 85.6875 220.242188 86.96875 221.113281 88.273438 C 221.984375 89.578125 222.824219 90.902344 223.628906 92.246094 C 224.433594 93.589844 225.207031 94.953125 225.945312 96.335938 C 226.683594 97.71875 227.386719 99.117188 228.058594 100.535156 C 228.730469 101.949219 229.363281 103.382812 229.964844 104.832031 C 230.5625 106.28125 231.128906 107.742188 231.65625 109.21875 C 232.183594 110.691406 232.675781 112.179688 233.128906 113.679688 C 233.585938 115.179688 234.003906 116.691406 234.382812 118.210938 C 234.765625 119.730469 235.109375 121.261719 235.414062 122.796875 C 235.71875 124.335938 235.988281 125.878906 236.21875 127.429688 C 236.445312 128.980469 236.640625 130.535156 236.792969 132.09375 C 236.945312 133.652344 237.0625 135.21875 237.136719 136.78125 C 237.214844 138.347656 237.253906 139.914062 237.253906 141.480469 C 237.25 143.046875 237.210938 144.613281 237.132812 146.179688 C 237.054688 147.746094 236.9375 149.304688 236.78125 150.867188 C 236.628906 152.425781 236.433594 153.980469 236.203125 155.527344 C 235.972656 157.078125 235.703125 158.621094 235.394531 160.15625 C 235.085938 161.695312 234.742188 163.222656 234.359375 164.742188 C 233.980469 166.261719 233.558594 167.769531 233.105469 169.269531 C 232.648438 170.769531 232.15625 172.257812 231.628906 173.730469 C 231.097656 175.207031 230.535156 176.667969 229.933594 178.113281 C 229.332031 179.5625 228.699219 180.992188 228.027344 182.410156 C 227.355469 183.824219 226.652344 185.222656 225.910156 186.605469 C 225.171875 187.988281 224.398438 189.351562 223.59375 190.695312 C 222.789062 192.039062 221.949219 193.359375 221.078125 194.664062 C 220.207031 195.964844 219.304688 197.246094 218.371094 198.503906 C 217.4375 199.761719 216.472656 200.996094 215.480469 202.207031 C 214.484375 203.417969 213.460938 204.605469 212.410156 205.765625 C 211.359375 206.925781 210.277344 208.0625 209.167969 209.167969 C 208.0625 210.277344 206.925781 211.359375 205.765625 212.410156 C 204.605469 213.460938 203.417969 214.484375 202.207031 215.480469 C 200.996094 216.472656 199.761719 217.4375 198.503906 218.371094 C 197.246094 219.304688 195.964844 220.207031 194.664062 221.078125 C 193.359375 221.949219 192.039062 222.789062 190.695312 223.59375 C 189.351562 224.398438 187.988281 225.171875 186.605469 225.910156 C 185.222656 226.652344 183.824219 227.355469 182.410156 228.027344 C 180.992188 228.695312 179.5625 229.332031 178.113281 229.933594 C 176.667969 230.535156 175.207031 231.097656 173.730469 231.628906 C 172.257812 232.15625 170.769531 232.648438 169.269531 233.105469 C 167.769531 233.558594 166.261719 233.980469 164.742188 234.359375 C 163.222656 234.742188 161.695312 235.085938 160.15625 235.394531 C 158.621094 235.703125 157.078125 235.972656 155.527344 236.203125 C 153.980469 236.433594 152.425781 236.628906 150.867188 236.78125 C 149.304688 236.9375 147.746094 237.054688 146.179688 237.132812 C 144.613281 237.210938 143.046875 237.25 141.480469 237.253906 Z M 141.480469 237.253906 " fill-opacity="1" fill-rule="nonzero"/></g><path fill="#999999" d="M 147.722656 81.085938 C 146.472656 80.855469 145.210938 80.699219 143.945312 80.605469 C 142.675781 80.515625 141.40625 80.496094 140.132812 80.546875 C 138.863281 80.59375 137.597656 80.714844 136.339844 80.902344 C 135.082031 81.089844 133.839844 81.34375 132.609375 81.667969 C 131.378906 81.992188 130.167969 82.382812 128.980469 82.839844 C 127.792969 83.296875 126.636719 83.816406 125.503906 84.402344 C 124.375 84.984375 123.28125 85.628906 122.21875 86.332031 C 121.160156 87.035156 120.140625 87.792969 119.164062 88.609375 C 118.1875 89.425781 117.261719 90.289062 116.378906 91.207031 C 115.496094 92.125 114.667969 93.085938 113.890625 94.09375 C 113.117188 95.101562 112.394531 96.148438 111.734375 97.234375 C 111.074219 98.324219 110.472656 99.441406 109.933594 100.59375 C 109.394531 101.746094 108.921875 102.925781 108.511719 104.128906 C 108.101562 105.332031 107.757812 106.554688 107.484375 107.796875 C 107.207031 109.039062 107 110.292969 106.863281 111.558594 C 106.722656 112.820312 106.65625 114.089844 106.65625 115.363281 L 124.070312 115.363281 C 124.066406 114.722656 124.101562 114.085938 124.171875 113.453125 C 124.242188 112.816406 124.34375 112.1875 124.484375 111.566406 C 124.621094 110.941406 124.796875 110.328125 125 109.722656 C 125.207031 109.121094 125.445312 108.527344 125.71875 107.949219 C 125.988281 107.371094 126.289062 106.8125 126.625 106.265625 C 126.957031 105.722656 127.320312 105.195312 127.710938 104.691406 C 128.101562 104.1875 128.515625 103.703125 128.960938 103.246094 C 129.40625 102.785156 129.871094 102.351562 130.363281 101.945312 C 130.855469 101.539062 131.367188 101.160156 131.902344 100.808594 C 132.433594 100.457031 132.984375 100.132812 133.554688 99.84375 C 134.121094 99.554688 134.703125 99.292969 135.300781 99.066406 C 135.898438 98.839844 136.503906 98.648438 137.125 98.488281 C 137.742188 98.328125 138.367188 98.203125 139 98.113281 C 139.628906 98.019531 140.265625 97.964844 140.902344 97.945312 C 141.542969 97.921875 142.179688 97.9375 142.816406 97.984375 C 143.453125 98.035156 144.085938 98.117188 144.710938 98.234375 C 145.546875 98.390625 146.363281 98.609375 147.164062 98.882812 C 147.96875 99.15625 148.746094 99.488281 149.5 99.878906 C 150.253906 100.269531 150.972656 100.710938 151.664062 101.203125 C 152.351562 101.699219 153.003906 102.238281 153.613281 102.828125 C 154.222656 103.417969 154.785156 104.050781 155.304688 104.71875 C 155.820312 105.390625 156.289062 106.097656 156.703125 106.835938 C 157.117188 107.578125 157.476562 108.34375 157.777344 109.136719 C 158.082031 109.929688 158.324219 110.738281 158.511719 111.566406 C 158.695312 112.394531 158.816406 113.230469 158.878906 114.074219 C 158.941406 114.921875 158.941406 115.769531 158.882812 116.613281 C 158.820312 117.460938 158.699219 118.296875 158.515625 119.125 C 158.332031 119.953125 158.085938 120.761719 157.785156 121.554688 C 157.484375 122.347656 157.125 123.113281 156.710938 123.855469 C 156.296875 124.59375 155.832031 125.300781 155.3125 125.972656 C 154.796875 126.644531 154.234375 127.277344 153.625 127.867188 C 153.015625 128.457031 152.367188 128.996094 151.675781 129.492188 C 150.257812 130.457031 148.898438 131.503906 147.605469 132.632812 C 146.308594 133.757812 145.085938 134.960938 143.933594 136.234375 C 142.78125 137.507812 141.710938 138.84375 140.71875 140.246094 C 139.726562 141.644531 138.820312 143.101562 138.003906 144.609375 C 137.183594 146.121094 136.457031 147.671875 135.824219 149.269531 C 135.191406 150.863281 134.65625 152.492188 134.21875 154.152344 C 133.777344 155.8125 133.441406 157.492188 133.203125 159.195312 C 132.964844 160.894531 132.828125 162.601562 132.792969 164.320312 L 132.792969 167.601562 L 150.207031 167.601562 L 150.207031 164.320312 C 150.285156 162.253906 150.601562 160.226562 151.164062 158.234375 C 151.726562 156.246094 152.515625 154.351562 153.53125 152.550781 C 154.542969 150.746094 155.757812 149.089844 157.167969 147.578125 C 158.578125 146.066406 160.144531 144.742188 161.871094 143.605469 C 163.25 142.613281 164.550781 141.523438 165.769531 140.339844 C 166.988281 139.160156 168.113281 137.894531 169.148438 136.542969 C 170.183594 135.195312 171.113281 133.78125 171.941406 132.296875 C 172.765625 130.8125 173.480469 129.273438 174.082031 127.6875 C 174.683594 126.097656 175.167969 124.472656 175.53125 122.8125 C 175.894531 121.152344 176.136719 119.476562 176.257812 117.78125 C 176.375 116.085938 176.371094 114.394531 176.242188 112.699219 C 176.109375 111.003906 175.859375 109.328125 175.484375 107.671875 C 175.109375 106.015625 174.617188 104.394531 174.003906 102.808594 C 173.394531 101.222656 172.667969 99.691406 171.832031 98.210938 C 170.996094 96.734375 170.058594 95.324219 169.015625 93.980469 C 167.972656 92.640625 166.839844 91.382812 165.613281 90.207031 C 164.386719 89.03125 163.078125 87.949219 161.695312 86.964844 C 160.308594 85.980469 158.859375 85.101562 157.347656 84.332031 C 155.835938 83.558594 154.273438 82.898438 152.664062 82.355469 C 151.054688 81.8125 149.414062 81.386719 147.742188 81.085938 Z M 147.722656 81.085938 " fill-opacity="1" fill-rule="nonzero"/><path fill="#999999" d="M 150.1875 193.722656 C 150.1875 194.292969 150.132812 194.859375 150.019531 195.417969 C 149.910156 195.980469 149.746094 196.523438 149.527344 197.054688 C 149.308594 197.582031 149.039062 198.082031 148.722656 198.558594 C 148.402344 199.035156 148.042969 199.472656 147.636719 199.878906 C 147.234375 200.28125 146.792969 200.640625 146.320312 200.960938 C 145.84375 201.277344 145.339844 201.546875 144.8125 201.765625 C 144.285156 201.984375 143.742188 202.148438 143.179688 202.261719 C 142.621094 202.371094 142.054688 202.425781 141.480469 202.425781 C 140.910156 202.425781 140.34375 202.371094 139.78125 202.261719 C 139.222656 202.148438 138.679688 201.984375 138.148438 201.765625 C 137.621094 201.546875 137.121094 201.277344 136.644531 200.960938 C 136.167969 200.640625 135.730469 200.28125 135.324219 199.878906 C 134.921875 199.472656 134.558594 199.035156 134.242188 198.558594 C 133.925781 198.082031 133.65625 197.582031 133.4375 197.054688 C 133.21875 196.523438 133.054688 195.980469 132.941406 195.417969 C 132.832031 194.859375 132.773438 194.292969 132.773438 193.722656 C 132.773438 193.148438 132.832031 192.582031 132.941406 192.023438 C 133.054688 191.460938 133.21875 190.917969 133.4375 190.390625 C 133.65625 189.859375 133.925781 189.359375 134.242188 188.882812 C 134.558594 188.410156 134.921875 187.96875 135.324219 187.566406 C 135.730469 187.160156 136.167969 186.800781 136.644531 186.480469 C 137.121094 186.164062 137.621094 185.894531 138.148438 185.675781 C 138.679688 185.457031 139.222656 185.292969 139.78125 185.183594 C 140.34375 185.070312 140.910156 185.015625 141.480469 185.015625 C 142.054688 185.015625 142.621094 185.070312 143.179688 185.183594 C 143.742188 185.292969 144.285156 185.457031 144.8125 185.675781 C 145.339844 185.894531 145.84375 186.164062 146.320312 186.480469 C 146.792969 186.800781 147.234375 187.160156 147.636719 187.566406 C 148.042969 187.96875 148.402344 188.410156 148.722656 188.882812 C 149.039062 189.359375 149.308594 189.859375 149.527344 190.390625 C 149.746094 190.917969 149.910156 191.460938 150.019531 192.023438 C 150.132812 192.582031 150.1875 193.148438 150.1875 193.722656 Z M 150.1875 193.722656 " fill-opacity="1" fill-rule="nonzero"/></svg>